<?xml version="1.0" standalone="no"?>
<!DOCTYPE svg PUBLIC "-//W3C//DTD SVG 20010904//EN"
 "http://www.w3.org/TR/2001/REC-SVG-20010904/DTD/svg10.dtd">
<svg version="1.0" xmlns="http://www.w3.org/2000/svg"
 width="661.000000pt" height="661.000000pt" viewBox="0 0 661.000000 661.000000"
 preserveAspectRatio="xMidYMid meet">
<metadata>
Created by potrace 1.14, written by Peter Selinger 2001-2017
</metadata>
<g transform="translate(0.000000,661.000000) scale(0.100000,-0.100000)"
fill="#000000" stroke="none">
<path d="M795 5909 c-16 -4 -41 -10 -55 -13 -86 -14 -185 -87 -246 -181 -132
-205 -52 -477 173 -589 197 -99 448 -7 545 200 58 124 45 287 -32 399 -38 56
-66 85 -105 110 -35 22 -125 66 -125 60 0 -2 -15 1 -32 6 -53 15 -91 18 -123
8z"/>
<path d="M4207 5786 c-66 -23 -90 -39 -150 -101 -63 -65 -80 -114 -81 -230 -1
-91 2 -105 27 -157 94 -188 324 -259 500 -153 57 34 77 53 109 100 46 68 58
110 60 200 1 106 -31 185 -107 260 -97 95 -229 125 -358 81z"/>
<path d="M3577 4904 c-1 -1 -38 -4 -82 -7 -219 -14 -418 -50 -602 -109 -37
-12 -71 -22 -75 -22 -3 -1 -10 -4 -14 -8 -4 -5 -16 -8 -26 -8 -10 0 -18 -4
-18 -10 0 -5 -7 -10 -16 -10 -17 0 -105 -48 -116 -65 -4 -5 -8 -6 -8 -2 0 5
-16 -7 -35 -25 -48 -45 -54 -90 -17 -117 47 -33 139 -41 457 -35 540 8 624 7
723 -10 217 -38 365 -115 480 -250 60 -71 121 -201 136 -291 3 -16 10 -52 15
-80 10 -53 8 -312 -3 -355 -3 -14 -8 -41 -10 -60 -3 -19 -5 -35 -6 -35 -1 0
-3 -9 -5 -20 -2 -11 -7 -36 -11 -55 -4 -19 -8 -42 -10 -50 -12 -67 -99 -328
-138 -415 -8 -16 -24 -55 -36 -85 -12 -30 -33 -77 -46 -104 -28 -54 -28 -74 0
-22 31 58 113 79 175 47 20 -11 57 -51 46 -51 -4 0 -3 -6 3 -12 6 -7 17 -40
26 -73 26 -95 34 -126 35 -137 1 -5 6 -8 13 -8 6 0 8 3 5 7 -4 3 3 18 15 31
13 14 17 22 10 18 -7 -4 1 14 17 40 17 26 28 51 25 55 -3 5 0 9 5 9 6 0 11 4
11 10 0 5 14 40 31 77 122 264 246 668 274 889 4 27 9 60 11 74 3 14 8 90 11
170 5 130 2 171 -22 345 -1 11 -10 49 -20 85 -9 36 -18 70 -19 76 -4 26 -79
184 -87 184 -5 0 -9 6 -9 13 0 6 -14 27 -30 46 -17 18 -30 38 -30 42 0 5 -7 9
-16 9 -8 0 -12 5 -9 10 3 6 2 10 -3 10 -6 0 -27 16 -48 35 -22 19 -47 37 -56
41 -10 3 -18 10 -18 15 0 5 -5 9 -11 9 -6 0 -23 9 -39 20 -15 11 -29 17 -32
14 -3 -2 -11 2 -18 11 -7 8 -20 15 -30 15 -9 0 -20 3 -23 7 -11 10 -107 42
-107 35 0 -3 -5 -1 -12 6 -7 7 -22 12 -33 12 -12 0 -25 3 -29 8 -4 4 -11 7
-14 8 -4 0 -25 3 -47 7 -22 4 -56 9 -75 12 -19 3 -51 8 -70 11 -76 11 -335 25
-343 18z"/>
<path d="M942 4843 c-89 -18 -214 -80 -283 -142 -76 -68 -158 -193 -198 -302
-93 -254 -120 -574 -75 -904 7 -49 12 -80 14 -80 1 0 3 -13 4 -30 8 -86 53
-263 101 -400 19 -55 37 -107 39 -117 3 -9 12 -30 20 -47 9 -17 15 -32 14 -33
-2 -3 72 -184 114 -278 28 -62 190 -386 218 -435 13 -22 34 -60 47 -84 103
-182 363 -583 403 -621 3 -3 34 -43 70 -90 70 -92 67 -89 161 -200 82 -99 309
-324 380 -377 79 -60 178 -104 204 -91 29 16 35 28 35 74 0 48 -11 86 -51 172
-16 35 -29 67 -29 72 0 4 -3 10 -7 12 -5 2 -19 25 -33 53 -30 59 -199 358
-235 415 -14 22 -25 44 -25 50 0 5 -4 10 -10 10 -5 0 -10 7 -10 15 0 8 -3 15
-8 15 -4 0 -13 14 -21 32 -8 17 -28 48 -45 67 -18 20 -38 50 -45 66 -28 62
-55 112 -96 176 l-42 65 -179 1 c-228 2 -240 4 -277 41 -24 25 -31 41 -35 84
-3 49 -1 56 28 85 37 37 59 43 192 46 54 1 98 6 98 11 0 5 -51 113 -114 240
-102 209 -235 519 -233 546 0 3 -5 15 -11 26 -28 52 -84 274 -98 389 -13 103
-7 341 11 435 27 142 70 248 135 330 44 57 63 73 125 109 121 71 283 82 515
36 116 -23 346 -108 575 -213 72 -32 153 -66 180 -75 194 -62 488 -49 735 33
224 74 329 157 290 230 -7 13 -21 16 -64 14 -31 -1 -71 -7 -88 -13 -18 -6 -53
-13 -78 -16 -25 -3 -70 -10 -100 -15 -115 -20 -301 -27 -420 -16 -139 13 -188
27 -330 94 -59 28 -261 151 -271 165 -3 5 -8 8 -10 6 -2 -1 -24 10 -49 26
-240 153 -631 307 -865 340 -84 12 -202 11 -273 -2z"/>
<path d="M3747 4026 c-10 -8 -20 -24 -22 -37 -5 -32 -32 -247 -40 -319 -6 -51
-17 -146 -20 -170 -7 -53 -17 -128 -20 -166 -3 -21 -9 -77 -15 -124 -6 -47
-20 -159 -31 -250 -11 -91 -22 -176 -24 -190 -3 -14 -7 -47 -10 -75 -9 -93
-17 -160 -20 -185 -10 -68 -15 -110 -20 -160 -2 -30 -7 -66 -9 -80 -2 -14 -7
-47 -10 -75 -14 -109 -7 -101 -94 -103 -93 -3 -105 -12 -124 -101 -8 -36 -19
-66 -25 -68 -6 -2 -16 20 -23 49 -25 115 -29 118 -145 121 l-70 2 -12 40 c-27
93 -65 232 -69 254 -3 13 -9 32 -15 42 -5 10 -11 31 -14 46 -2 15 -11 53 -20
83 -9 30 -17 60 -19 65 -11 49 -66 77 -97 49 -15 -14 -36 -71 -45 -124 -3 -14
-8 -34 -11 -45 -4 -11 -8 -24 -9 -30 -1 -5 -7 -30 -15 -55 -7 -25 -14 -49 -15
-55 -2 -5 -17 -62 -34 -125 -18 -63 -32 -119 -33 -125 -4 -20 -22 -22 -202
-24 l-183 -1 -10 32 c-10 31 -14 50 -28 123 -3 17 -7 35 -8 40 -2 6 -6 28 -11
50 -10 53 -39 85 -73 79 -14 -3 -31 -12 -37 -21 -7 -9 -25 -75 -40 -147 -15
-72 -34 -136 -42 -142 -8 -7 -28 -12 -46 -13 -18 0 -41 -3 -52 -5 -11 -2 -23
-5 -26 -5 -4 -1 -15 -32 -24 -71 -9 -39 -21 -70 -25 -70 -12 0 -41 60 -35 71
3 4 1 10 -5 14 -6 4 -8 10 -5 14 2 5 -7 18 -20 31 -25 23 -26 23 -297 23 -150
0 -282 -3 -293 -7 -11 -3 -29 -18 -39 -33 -11 -14 -14 -23 -7 -19 8 5 10 0 7
-18 -4 -21 0 -27 20 -32 13 -3 22 -9 20 -13 -3 -5 181 -6 334 -1 14 0 57 1 96
1 79 0 78 1 109 -101 10 -30 21 -62 25 -70 3 -8 13 -37 21 -63 15 -51 30 -70
66 -81 35 -11 57 21 87 130 15 54 29 106 31 114 6 30 25 70 32 71 5 1 28 2 53
4 25 1 49 3 53 4 4 0 17 18 29 38 l22 37 13 -32 c7 -17 21 -35 30 -40 19 -10
486 -15 516 -6 17 5 45 49 52 82 31 137 82 312 91 312 6 0 26 -53 44 -117 53
-198 71 -251 86 -264 14 -11 57 -16 146 -18 26 -1 40 -24 52 -88 9 -44 68
-257 78 -278 14 -31 54 -40 84 -20 13 8 24 17 24 19 0 2 5 28 11 57 5 30 12
65 14 79 4 29 47 223 51 228 1 2 41 5 89 6 61 2 89 7 95 16 8 13 18 71 25 140
6 55 17 147 21 172 2 15 6 48 9 72 4 38 26 218 40 326 15 113 35 284 40 340 3
36 8 72 10 80 2 8 7 40 10 70 12 121 16 156 22 174 9 31 22 -2 28 -70 3 -33 8
-70 10 -84 2 -14 6 -52 9 -85 10 -98 17 -168 21 -205 11 -97 16 -150 20 -210
3 -36 7 -76 10 -90 2 -14 7 -54 11 -90 16 -162 23 -235 29 -270 2 -14 7 -56
10 -95 4 -38 8 -81 10 -95 2 -14 3 -35 4 -46 2 -34 53 -52 142 -50 44 1 83 6
91 14 9 7 19 36 23 65 5 28 9 54 10 57 1 3 5 30 10 60 5 30 10 58 11 63 1 4 2
14 3 22 0 8 7 15 14 15 9 0 19 -23 27 -57 8 -32 15 -62 16 -68 2 -5 5 -19 7
-30 20 -83 31 -116 44 -127 18 -15 171 -20 196 -7 9 6 23 24 30 42 l13 32 25
-37 c13 -20 34 -39 47 -41 13 -2 357 -4 765 -4 816 0 787 -2 787 59 0 16 -6
35 -13 42 -12 12 -273 16 -1167 14 -310 0 -313 0 -325 20 -13 23 -63 191 -58
196 7 7 -49 46 -67 46 -24 0 -45 -28 -59 -80 -30 -110 -53 -180 -60 -180 -29
0 -44 42 -102 275 -34 138 -68 258 -77 268 -18 20 -51 22 -74 5 -18 -14 -34
-66 -43 -143 -4 -27 -8 -57 -10 -65 -2 -8 -7 -31 -10 -50 -3 -19 -8 -48 -12
-65 -7 -33 -9 -49 -18 -110 -11 -77 -25 -114 -40 -109 -16 7 -22 24 -24 74 -1
30 -23 237 -36 340 -10 81 -19 167 -19 193 -1 15 -3 27 -6 27 -3 0 -6 23 -6
50 -1 28 -5 72 -9 98 -3 26 -6 54 -7 62 0 8 -4 51 -8 95 -5 44 -12 107 -15
140 -3 33 -7 71 -9 85 -3 14 -7 61 -11 105 -3 44 -8 94 -10 110 -2 17 -7 55
-10 85 -7 69 -12 121 -26 240 -6 52 -12 109 -13 125 -6 59 -18 102 -29 103 -7
0 -21 3 -32 6 -11 3 -28 0 -38 -8z"/>
<path d="M5440 3233 c-88 -30 -165 -98 -199 -177 -33 -75 -38 -91 -35 -108 1
-10 -1 -18 -6 -18 -4 0 -4 -16 0 -35 5 -21 4 -35 -2 -35 -5 0 -7 -4 -4 -8 3
-5 8 -24 11 -43 4 -28 14 -75 20 -99 3 -11 30 -65 35 -70 3 -3 16 -21 30 -40
13 -19 47 -59 75 -88 27 -30 68 -73 90 -96 22 -23 56 -62 75 -85 19 -24 52
-61 72 -83 l37 -39 58 29 c32 17 87 42 123 57 36 15 83 35 105 45 22 10 63 26
90 36 49 18 108 49 132 69 7 5 30 24 52 40 49 37 99 113 124 185 19 56 26 169
13 225 -10 40 -57 125 -69 125 -6 0 -8 3 -4 6 12 13 -89 86 -138 99 -49 14
-143 13 -170 -1 -14 -7 -25 -10 -25 -8 0 6 -72 -36 -80 -46 -18 -22 -39 -16
-59 18 -25 45 -67 92 -79 92 -5 0 -16 7 -23 16 -36 43 -171 63 -249 37z"/>
<path d="M4079 2603 c0 -5 -2 -18 -5 -30 -2 -13 0 -23 4 -23 4 0 8 14 8 30 1
17 0 30 -2 30 -2 0 -4 -3 -5 -7z"/>
<path d="M4065 2530 c3 -5 8 -10 11 -10 2 0 4 5 4 10 0 6 -5 10 -11 10 -5 0
-7 -4 -4 -10z"/>
<path d="M3785 2098 c-54 -82 -47 -72 -121 -163 -83 -103 -140 -153 -214 -192
-14 -7 -25 -16 -25 -20 -3 -47 -42 -158 -64 -182 -29 -31 -84 -47 -124 -37
-39 10 -83 58 -96 106 -7 25 -17 60 -23 78 -5 19 -11 44 -13 55 -9 70 -39 157
-54 158 -9 1 -34 2 -57 3 -86 5 -120 35 -150 136 -8 27 -21 50 -28 50 -7 0
-19 -24 -26 -57 -15 -59 -64 -122 -98 -124 -9 -1 -119 -2 -245 -3 l-227 -1
-35 -39 c-44 -50 -88 -140 -89 -185 -1 -35 0 -36 34 -33 19 1 57 13 85 26 121
56 216 81 315 81 79 -1 102 -4 137 -23 124 -65 203 -220 228 -446 4 -32 9 -70
12 -85 11 -60 14 -77 14 -94 0 -11 9 -53 20 -95 11 -43 22 -84 23 -92 1 -8 13
-37 26 -65 13 -27 23 -53 22 -56 -1 -9 62 -76 83 -86 31 -16 103 -6 149 21 52
30 216 192 216 212 0 5 13 21 38 49 7 8 40 51 74 97 33 45 69 91 79 102 11 11
19 23 19 27 0 4 6 14 13 21 7 7 35 45 62 83 27 39 52 72 55 75 7 6 267 399
299 453 13 21 21 41 17 44 -3 3 -44 7 -92 8 -128 3 -159 33 -170 162 -8 86 -9
91 -15 98 -3 3 -27 -27 -54 -67z"/>
</g>
</svg>
